<svg width="20" height="20" viewBox="0 0 20 20" fill="none" xmlns="http://www.w3.org/2000/svg">
<path d="M6.66667 10.0022C7.55072 10.0022 8.39857 9.65105 9.02369 9.02593C9.64881 8.40081 10 7.55296 10 6.6689C10 5.78485 9.64881 4.937 9.02369 4.31188C8.39857 3.68676 7.55072 3.33557 6.66667 3.33557C5.78261 3.33557 4.93477 3.68676 4.30964 4.31188C3.68452 4.937 3.33333 5.78485 3.33333 6.6689C3.33333 7.55296 3.68452 8.40081 4.30964 9.02593C4.93477 9.65105 5.78261 10.0022 6.66667 10.0022ZM14.1667 10.0022C14.8297 10.0022 15.4656 9.73885 15.9344 9.27001C16.4033 8.80116 16.6667 8.16528 16.6667 7.50224C16.6667 6.8392 16.4033 6.20331 15.9344 5.73447C15.4656 5.26563 14.8297 5.00224 14.1667 5.00224C13.5036 5.00224 12.8677 5.26563 12.3989 5.73447C11.9301 6.20331 11.6667 6.8392 11.6667 7.50224C11.6667 8.16528 11.9301 8.80116 12.3989 9.27001C12.8677 9.73885 13.5036 10.0022 14.1667 10.0022ZM2.8125 11.2522C2.3981 11.2522 2.00067 11.4169 1.70765 11.7099C1.41462 12.0029 1.25 12.4003 1.25 12.8147V13.3356C1.25 13.3356 1.25 17.0856 6.66667 17.0856C12.0833 17.0856 12.0833 13.3356 12.0833 13.3356V12.8147C12.0833 12.4003 11.9187 12.0029 11.6257 11.7099C11.3327 11.4169 10.9352 11.2522 10.5208 11.2522H2.8125ZM11.9475 15.8727C12.5208 16.1052 13.2471 16.2522 14.1663 16.2522C18.5413 16.2522 18.5413 12.9189 18.5413 12.9189V12.8147C18.5413 12.4004 18.3767 12.003 18.0838 11.71C17.7908 11.417 17.3935 11.2523 16.9792 11.2522H12.3363C12.7109 11.6865 12.9167 12.2412 12.9158 12.8147V13.3543L12.9154 13.3781C12.913 13.459 12.9074 13.5397 12.8988 13.6202C12.8781 13.8061 12.8445 13.9905 12.7983 14.1718C12.6405 14.7934 12.3503 15.3736 11.9475 15.8727Z" fill="#A2B8AD"/>
</svg>
