<svg width="20" height="20" viewBox="0 0 20 20" fill="none" xmlns="http://www.w3.org/2000/svg">
<path d="M3.14101 10.6432H8.14101C8.36203 10.6432 8.57399 10.5554 8.73027 10.3991C8.88655 10.2429 8.97434 10.0309 8.97434 9.80988V3.14321C8.97434 2.9222 8.88655 2.71023 8.73027 2.55395C8.57399 2.39767 8.36203 2.30988 8.14101 2.30988H3.14101C2.92 2.30988 2.70804 2.39767 2.55176 2.55395C2.39548 2.71023 2.30768 2.9222 2.30768 3.14321V9.80988C2.30768 10.0309 2.39548 10.2429 2.55176 10.3991C2.70804 10.5554 2.92 10.6432 3.14101 10.6432ZM2.30768 16.4765C2.30768 16.6976 2.39548 16.9095 2.55176 17.0658C2.70804 17.2221 2.92 17.3099 3.14101 17.3099H8.14101C8.36203 17.3099 8.57399 17.2221 8.73027 17.0658C8.88655 16.9095 8.97434 16.6976 8.97434 16.4765V13.1432C8.97434 12.9222 8.88655 12.7102 8.73027 12.554C8.57399 12.3977 8.36203 12.3099 8.14101 12.3099H3.14101C2.92 12.3099 2.70804 12.3977 2.55176 12.554C2.39548 12.7102 2.30768 12.9222 2.30768 13.1432V16.4765ZM10.641 16.4765C10.641 16.6976 10.7288 16.9095 10.8851 17.0658C11.0414 17.2221 11.2533 17.3099 11.4743 17.3099H16.4743C16.6954 17.3099 16.9073 17.2221 17.0636 17.0658C17.2199 16.9095 17.3077 16.6976 17.3077 16.4765V10.6432C17.3077 10.4222 17.2199 10.2102 17.0636 10.054C16.9073 9.89767 16.6954 9.80988 16.4743 9.80988H11.4743C11.2533 9.80988 11.0414 9.89767 10.8851 10.054C10.7288 10.2102 10.641 10.4222 10.641 10.6432V16.4765ZM11.4743 8.14321H16.4743C16.6954 8.14321 16.9073 8.05541 17.0636 7.89913C17.2199 7.74285 17.3077 7.53089 17.3077 7.30988V3.14321C17.3077 2.9222 17.2199 2.71023 17.0636 2.55395C16.9073 2.39767 16.6954 2.30988 16.4743 2.30988H11.4743C11.2533 2.30988 11.0414 2.39767 10.8851 2.55395C10.7288 2.71023 10.641 2.9222 10.641 3.14321V7.30988C10.641 7.53089 10.7288 7.74285 10.8851 7.89913C11.0414 8.05541 11.2533 8.14321 11.4743 8.14321Z" fill="#A2B8AD"/>
</svg>
