<svg width="20" height="20" viewBox="0 0 20 20" fill="none" xmlns="http://www.w3.org/2000/svg">
<path d="M14.6484 3.69549L12.9817 2.82049C11.5184 2.05299 10.7867 1.66882 10.0001 1.66882C9.21342 1.66882 8.48175 2.05216 7.01841 2.82049L6.75092 2.96132L14.1867 7.21049L17.5334 5.53549C16.9951 4.92549 16.1267 4.46966 14.6484 3.69382V3.69549ZM18.1234 6.63882L14.7917 8.30549V10.8355C14.7917 11.0013 14.7259 11.1602 14.6087 11.2774C14.4915 11.3946 14.3325 11.4605 14.1667 11.4605C14.001 11.4605 13.842 11.3946 13.7248 11.2774C13.6076 11.1602 13.5417 11.0013 13.5417 10.8355V8.92966L10.6251 10.388V18.2555C11.2234 18.1063 11.9042 17.7497 12.9817 17.1838L14.6484 16.3088C16.4409 15.368 17.3376 14.898 17.8359 14.0522C18.3334 13.2072 18.3334 12.1547 18.3334 10.0522V9.95466C18.3334 8.37716 18.3334 7.39049 18.1234 6.63882ZM9.37508 18.2555V10.3888L1.87675 6.63882C1.66675 7.39049 1.66675 8.37716 1.66675 9.95299V10.0505C1.66675 12.1547 1.66675 13.2072 2.16425 14.0522C2.66258 14.898 3.55925 15.3688 5.35175 16.3097L7.01841 17.1838C8.09591 17.7497 8.77675 18.1063 9.37508 18.2555ZM2.46675 5.53632L10.0001 9.30299L12.8426 7.88216L5.43758 3.65049L5.35175 3.69549C3.87425 4.47049 3.00508 4.92632 2.46675 5.53716V5.53632Z" fill="#A2B8AD"/>
</svg>
