<svg width="20" height="20" viewBox="0 0 20 20" fill="none" xmlns="http://www.w3.org/2000/svg">
<path fill-rule="evenodd" clip-rule="evenodd" d="M4.64492 3.9114C3.95076 4.48807 3.76742 5.46307 3.40159 7.4139L2.77659 10.7472C2.26242 13.4906 2.00576 14.8622 2.75492 15.7656C3.50492 16.6689 4.89992 16.6689 7.69159 16.6689H12.3083C15.0999 16.6689 16.4949 16.6689 17.2449 15.7656C17.9949 14.8622 17.7366 13.4906 17.2233 10.7472L16.5983 7.4139C16.2316 5.4639 16.0491 4.48807 15.3549 3.9114C14.6608 3.33557 13.6683 3.33557 11.6833 3.33557H8.31659C6.33159 3.33557 5.33909 3.33557 4.64492 3.9114ZM8.23159 6.4614C8.36081 6.82727 8.60031 7.14406 8.91709 7.36813C9.23386 7.5922 9.61233 7.71252 10.0003 7.71252C10.3884 7.71252 10.7668 7.5922 11.0836 7.36813C11.4004 7.14406 11.6399 6.82727 11.7691 6.4614C11.8274 6.30932 11.9427 6.18599 12.0906 6.11768C12.2384 6.04937 12.4071 6.04147 12.5607 6.09568C12.7143 6.14988 12.8406 6.26189 12.9129 6.40787C12.9851 6.55385 12.9975 6.72226 12.9474 6.87724C12.732 7.48669 12.3329 8.01435 11.8051 8.38756C11.2773 8.76078 10.6468 8.96118 10.0003 8.96118C9.35392 8.96118 8.72341 8.76078 8.19562 8.38756C7.66782 8.01435 7.26872 7.48669 7.05326 6.87724C7.02433 6.79951 7.01116 6.7168 7.01452 6.63393C7.01788 6.55106 7.0377 6.46969 7.07283 6.39455C7.10795 6.31942 7.15768 6.25203 7.21911 6.19631C7.28055 6.14059 7.35246 6.09765 7.43065 6.07C7.50884 6.04235 7.59176 6.03054 7.67456 6.03526C7.75736 6.03998 7.8384 6.06113 7.91295 6.09748C7.98749 6.13383 8.05406 6.18466 8.10877 6.247C8.16347 6.30933 8.20523 6.38277 8.23159 6.4614Z" fill="#A2B8AD"/>
</svg>
