<svg width="20" height="20" viewBox="0 0 20 20" fill="none" xmlns="http://www.w3.org/2000/svg">
<path fill-rule="evenodd" clip-rule="evenodd" d="M11.8992 1.79549C11.5909 1.66882 11.1992 1.66882 10.4167 1.66882C9.63419 1.66882 9.24252 1.66882 8.93419 1.79549C8.52373 1.964 8.197 2.28863 8.02585 2.69799C7.94752 2.88382 7.91752 3.10132 7.90502 3.41716C7.89946 3.64599 7.83563 3.86963 7.71956 4.06692C7.60349 4.26422 7.43901 4.42864 7.24169 4.54466C7.04064 4.65641 6.81464 4.71561 6.58462 4.71678C6.35461 4.71794 6.12802 4.66103 5.92585 4.55132C5.64419 4.40299 5.44002 4.32132 5.23835 4.29466C4.79715 4.23673 4.35091 4.35532 3.99669 4.62466C3.73169 4.82632 3.53585 5.16299 3.14502 5.83549C2.75335 6.50799 2.55835 6.84382 2.51419 7.17299C2.45585 7.61132 2.57585 8.05466 2.84752 8.40549C2.97085 8.56549 3.14502 8.69966 3.41419 8.86799C3.81169 9.11549 4.06669 9.53716 4.06669 10.0022C4.06669 10.4672 3.81169 10.8888 3.41502 11.1355C3.14502 11.3047 2.97085 11.4388 2.84669 11.5988C2.71259 11.7721 2.61416 11.9703 2.55709 12.1818C2.50002 12.3933 2.48544 12.6141 2.51419 12.8313C2.55835 13.1597 2.75335 13.4963 3.14502 14.1688C3.53669 14.8413 3.73169 15.1772 3.99669 15.3797C4.35002 15.6488 4.79669 15.7672 5.23835 15.7097C5.44002 15.683 5.64419 15.6013 5.92585 15.453C6.12812 15.3431 6.35487 15.2861 6.58504 15.2873C6.81522 15.2885 7.04137 15.3478 7.24252 15.4597C7.64752 15.693 7.88752 16.1222 7.90502 16.5872C7.91752 16.9038 7.94752 17.1205 8.02585 17.3063C8.19585 17.7147 8.52252 18.0397 8.93419 18.2088C9.24252 18.3355 9.63419 18.3355 10.4167 18.3355C11.1992 18.3355 11.5909 18.3355 11.8992 18.2088C12.3096 18.0403 12.6364 17.7157 12.8075 17.3063C12.8859 17.1205 12.9159 16.9038 12.9284 16.5872C12.945 16.1222 13.1859 15.6922 13.5917 15.4597C13.7927 15.3479 14.0187 15.2887 14.2487 15.2875C14.4788 15.2864 14.7054 15.3433 14.9075 15.453C15.1892 15.6013 15.3934 15.683 15.595 15.7097C16.0367 15.768 16.4834 15.6488 16.8367 15.3797C17.1017 15.178 17.2975 14.8413 17.6884 14.1688C18.08 13.4963 18.275 13.1605 18.3192 12.8313C18.3478 12.6141 18.3331 12.3933 18.2759 12.1817C18.2187 11.9702 18.1201 11.772 17.9859 11.5988C17.8625 11.4388 17.6884 11.3047 17.4192 11.1363C17.0217 10.8888 16.7667 10.4672 16.7667 10.0022C16.7667 9.53716 17.0217 9.11549 17.4184 8.86882C17.6884 8.69966 17.8625 8.56549 17.9867 8.40549C18.1208 8.23221 18.2192 8.03406 18.2763 7.82252C18.3334 7.61097 18.3479 7.39021 18.3192 7.17299C18.275 6.84466 18.08 6.50799 17.6884 5.83549C17.2967 5.16299 17.1017 4.82716 16.8367 4.62466C16.4825 4.35532 16.0362 4.23673 15.595 4.29466C15.3934 4.32132 15.1892 4.40299 14.9075 4.55132C14.7052 4.66118 14.4785 4.71817 14.2483 4.71701C14.0182 4.71584 13.792 4.65656 13.5909 4.54466C13.3937 4.42854 13.2294 4.26407 13.1135 4.06678C12.9975 3.8695 12.9338 3.64591 12.9284 3.41716C12.9159 3.10049 12.8859 2.88382 12.8075 2.69799C12.7228 2.49527 12.599 2.31123 12.4431 2.15637C12.2873 2.00152 12.1024 1.87889 11.8992 1.79549ZM10.4167 12.5022C11.8084 12.5022 12.9359 11.383 12.9359 10.0022C12.9359 8.62132 11.8075 7.50216 10.4167 7.50216C9.02502 7.50216 7.89752 8.62132 7.89752 10.0022C7.89752 11.383 9.02585 12.5022 10.4167 12.5022Z" fill="#A2B8AD"/>
</svg>
